Coordinates
version=1
nRows=4
nColumns=63
inDegrees=yes

Units are S.I. units (second, meters, Newtons, ...)
If the header above contains a line with 'inDegrees', this indicates whether rotational values are in degrees (yes) or radians (no).

endheader
time	pelvis_tilt	pelvis_list	pelvis_rotation	pelvis_tx	pelvis_ty	pelvis_tz	hip_flexion_r	hip_adduction_r	hip_rotation_r	knee_angle_r	knee_angle_r_beta	ankle_angle_r	subtalar_angle_r	mtp_angle_r	hip_flexion_l	hip_adduction_l	hip_rotation_l	knee_angle_l	knee_angle_l_beta	ankle_angle_l	subtalar_angle_l	mtp_angle_l	L5_S1_Flex_Ext	L5_S1_Lat_Bending	L5_S1_axial_rotation	L4_L5_Flex_Ext	L4_L5_Lat_Bending	L4_L5_axial_rotation	L3_L4_Flex_Ext	L3_L4_Lat_Bending	L3_L4_axial_rotation	L2_L3_Flex_Ext	L2_L3_Lat_Bending	L2_L3_axial_rotation	L1_L2_Flex_Ext	L1_L2_Lat_Bending	L1_L2_axial_rotation	L1_T12_Flex_Ext	L1_T12_Lat_Bending	L1_T12_axial_rotation	Abs_r3	Abs_r2	Abs_r1	Abs_t1	Abs_t2	neck_flexion	neck_bending	neck_rotation	arm_flex_r	arm_add_r	arm_rot_r	elbow_flex_r	pro_sup_r	wrist_flex_r	wrist_dev_r	arm_flex_l	arm_add_l	arm_rot_l	elbow_flex_l	pro_sup_l	wrist_flex_l	wrist_dev_l
      2.66101695	      3.68725561	     -2.51253570	     88.70698396	      0.15794083	      0.87150047	      0.42141350	      6.97269413	     -2.41646421	    -18.29760745	     20.38132394	      0.35572121	     35.43541767	     18.87248251	      0.00000000	      8.34024739	     -3.35444874	     -9.73527953	     21.09611191	      0.36819661	     34.74428379	      4.56615159	      0.00000000	      0.10889134	      0.00815369	      2.55894558	      0.20222210	      0.01084441	      2.71887968	      0.17889757	      0.01982488	      2.71887968	      0.12445191	      0.01982488	      2.23907738	      0.10111649	      0.01662701	      2.07914328	      0.06222051	      0.01263007	      1.91920919	      0.77779992	      0.09223618	     14.23208764	      0.00000000	      0.00000000	     25.44083541	     -6.40659306	    -20.05225233	      4.78409992	     -9.62357148	     26.89042904	     33.25474478	     83.21240700	     -8.23846957	      0.52586960	     19.17835012	     -5.14497216	     92.99729940	     24.87560175	     65.81387757	      8.20660532	     -9.07680034
      2.67796610	      3.71938315	     -2.40268023	     88.61700897	      0.15911810	      0.87138222	      0.42075096	      6.84624131	     -2.31473649	    -18.21721617	     20.47211933	      0.35730589	     35.45843674	     18.90874492	      0.00000000	      8.14855525	     -3.49977695	     -9.78531126	     21.15797684	      0.36927636	     34.64804101	      4.50557357	      0.00000000	      0.10118348	     -0.00256065	      2.51284855	      0.18790785	     -0.00340566	      2.66990158	      0.16623435	     -0.00622596	      2.66990158	      0.11564260	     -0.00622596	      2.19874248	      0.09395898	     -0.00522168	      2.04168944	      0.05781624	     -0.00396645	      1.88463641	      0.72274351	     -0.02896657	     13.97570975	      0.00000000	      0.00000000	     25.55104547	     -6.41233461	    -20.06018619	      3.68002859	     -9.81923078	     26.90782166	     32.85761425	     83.12346538	     -8.26530663	      0.57080516	     18.86721241	     -5.66051809	     93.12507966	     24.52285939	     65.87263856	      8.06958173	     -8.91151863
      2.69491525	      3.90512802	     -2.19945939	     88.64958904	      0.15950266	      0.87167971	      0.41935293	      6.35459165	     -2.01691014	    -18.10943021	     20.09640694	      0.35074847	     35.45757880	     18.86427170	      0.00000000	      7.64694190	     -3.64621243	     -9.52750460	     20.84949465	      0.36389233	     34.19749804	      3.93431160	      0.00000000	      0.09945545	      0.01198174	      2.52676625	      0.18469871	      0.01593571	      2.68468914	      0.16339535	      0.02913239	      2.68468914	      0.11366763	      0.02913239	      2.21092047	      0.09235433	      0.02443316	      2.05299758	      0.05682884	      0.01855971	      1.89507469	      0.71040031	      0.13553980	     14.05311586	      0.00000000	      0.00000000	     25.25589346	     -6.01339447	    -20.07056718	      1.70997281	     -9.57988827	     24.78731381	     32.69728351	     81.20872400	     -9.22156811	     -0.72550272	     18.38201865	     -5.94599519	     93.25405183	     24.82259621	     67.01129129	      4.68480966	     -7.41926125
      2.71186441	      3.95546605	     -2.06996963	     88.65157287	      0.16023468	      0.87174526	      0.41858437	      6.19236900	     -1.92628850	    -18.07205366	     20.19053557	      0.35239132	     35.46895736	     18.87177479	      0.00000000	      7.43485153	     -3.77380151	     -9.55812343	     20.93973679	      0.36546735	     33.92590468	      3.89439608	      0.00000000	      0.09328783	      0.00774906	      2.50483269	      0.17324483	      0.01030624	      2.66138474	      0.15326258	      0.01884105	      2.66138474	      0.10661866	      0.01884105	      2.19172861	      0.08662708	      0.01580187	      2.03517656	      0.05330467	      0.01200329	      1.87862452	      0.66634565	      0.08765886	     13.93112800	      0.00000000	      0.00000000	     25.29791605	     -5.99080691	    -20.09555879	      0.67223704	     -9.68040938	     24.89619264	     32.31294621	     81.19618864	     -9.24396265	     -0.70783597	     18.09987652	     -6.30346435	     93.32979487	     24.67619836	     67.10300576	      4.56296487	     -7.30458890
